<mxfile host="65bd71144e" scale="1" border="0" disableSvgWarning="true">
    <diagram id="3mQajCpfwHifORi3GhFC" name="Page-1">
        <mxGraphModel dx="1939" dy="1718" grid="1" gridSize="20" guides="1" tooltips="1" connect="1" arrows="1" fold="1" page="1" pageScale="1" pageWidth="827" pageHeight="1169" math="0" shadow="0">
            <root>
                <mxCell id="0"/>
                <mxCell id="1" parent="0"/>
                <mxCell id="101" value="Description&#10;&#10;[function]" style="rounded=1;fillColor=none;glass=0;sketch=0;connectable=1;strokeWidth=2;" parent="1" vertex="1">
                    <mxGeometry width="160" height="80" as="geometry"/>
                </mxCell>
                <mxCell id="111" value="Description&#10;&#10;[function]" style="rounded=1;fillColor=none;glass=0;sketch=0;connectable=1;strokeWidth=2;" vertex="1" parent="1">
                    <mxGeometry x="200" width="160" height="80" as="geometry"/>
                </mxCell>
                <mxCell id="112" value="Description&#10;&#10;[function]" style="rounded=1;fillColor=none;glass=0;sketch=0;connectable=1;strokeWidth=2;" vertex="1" parent="1">
                    <mxGeometry x="400" width="160" height="80" as="geometry"/>
                </mxCell>
                <mxCell id="113" value="Description&#10;&#10;[function]" style="rounded=1;fillColor=none;glass=0;sketch=0;connectable=1;strokeWidth=2;" vertex="1" parent="1">
                    <mxGeometry x="40" y="120" width="160" height="80" as="geometry"/>
                </mxCell>
                <mxCell id="114" value="Description&#10;&#10;[function]" style="rounded=1;fillColor=none;glass=0;sketch=0;connectable=1;strokeWidth=2;" vertex="1" parent="1">
                    <mxGeometry x="240" y="120" width="160" height="80" as="geometry"/>
                </mxCell>
                <mxCell id="115" value="Description&#10;&#10;[function]" style="rounded=1;fillColor=none;glass=0;sketch=0;connectable=1;strokeWidth=2;" vertex="1" parent="1">
                    <mxGeometry x="440" y="120" width="160" height="80" as="geometry"/>
                </mxCell>
            </root>
        </mxGraphModel>
    </diagram>
</mxfile>